<svg xmlns="http://www.w3.org/2000/svg" width="16" height="16" viewBox="0 0 16 16"><path d="M16 6.34v7.088q0 .59-.42 1.01t-1.01.42H1.43q-.59 0-1.01-.42T0 13.427v-7.09q.394.44.903.778 3.233 2.196 4.44 3.08.508.375.825.585t.844.43.98.22h.02q.454 0 .98-.22t.845-.43.826-.584q1.52-1.098 4.447-3.08.51-.348.893-.777zm0-2.626q0 .705-.438 1.348t-1.09 1.098l-4.178 2.902q-.09.063-.38.272t-.48.34-.465.29-.514.24-.446.08h-.018q-.205 0-.446-.08t-.513-.24-.464-.29-.483-.34-.38-.272q-.812-.57-2.338-1.63t-1.83-1.27Q.984 5.785.493 5.13t-.49-1.22q0-.695.37-1.16t1.058-.464h13.143q.58 0 1.004.42t.423 1.01z"/></svg>