<svg xmlns="http://www.w3.org/2000/svg" width="14" height="16" viewBox="0 0 14 16"><path d="M11.43 10.652q0-.098-.02-.143-.026-.072-.343-.264t-.79-.442l-.473-.26q-.045-.026-.17-.115t-.223-.135-.187-.045q-.16 0-.42.29t-.51.585-.392.295q-.062 0-.146-.03t-.138-.06-.152-.084-.125-.076q-.885-.49-1.523-1.13t-1.13-1.52l-.075-.126q-.058-.098-.085-.152t-.058-.138-.032-.147q0-.116.183-.3t.403-.343.402-.353.183-.325q0-.09-.045-.188t-.134-.223-.117-.17Q5.286 5 5.18 4.8t-.224-.406-.237-.424-.224-.362-.147-.16-.144-.02q-.43 0-.902.197-.41.188-.714.844t-.304 1.164q0 .143.022.304t.045.272.08.295.09.263.11.295.1.268q.535 1.465 1.932 2.863t2.862 1.933q.054.018.268.098t.295.112.263.09.295.08.272.044.304.022q.51 0 1.165-.304t.843-.714q.196-.473.196-.902zm2.284-6.938v8.57q0 1.064-.754 1.818t-1.817.754h-8.57q-1.064 0-1.818-.754T0 12.285v-8.57Q0 2.65.756 1.896t1.817-.754h8.57q1.064 0 1.818.754t.754 1.817z"/></svg>