<svg xmlns="http://www.w3.org/2000/svg" width="14" height="16" viewBox="0 0 14 16"><path d="M10.473 9.49q0-.445-.174-.816t-.434-.612-.652-.438-.737-.304-.78-.205l-.93-.214q-.268-.062-.393-.093t-.313-.103-.267-.143-.147-.187-.067-.268q0-.688 1.285-.688.384 0 .688.107t.482.254.34.3.356.258.43.107q.42 0 .674-.286t.254-.688q0-.492-.5-.89T8.32 3.98t-1.625-.205q-.607 0-1.18.138t-1.066.42-.796.778-.3 1.147q0 .545.17.95t.5.675.715.433.92.29l1.303.32q.804.197 1 .322.286.18.286.536 0 .35-.358.577t-.938.228q-.455 0-.817-.143t-.58-.344-.406-.402-.41-.344-.482-.143q-.446 0-.674.267t-.228.67q0 .82 1.09 1.406t2.597.585q.652 0 1.25-.165t1.094-.478.79-.835.295-1.174zm3.24 1.94q0 1.42-1.003 2.423t-2.424 1.004q-1.16 0-2.09-.714-.687.143-1.338.143-1.277 0-2.442-.496t-2.01-1.34-1.338-2.008T.572 8q0-.652.143-1.34Q0 5.733 0 4.573q0-1.42 1.005-2.424T3.43 1.144q1.16 0 2.088.714.688-.143 1.34-.143 1.276 0 2.44.496t2.01 1.34 1.34 2.01.495 2.44q0 .653-.143 1.34.714.93.714 2.09z"/></svg>